<svg width="100%" height="100%" id="svg" viewBox="0 0 1440 390" xmlns="http://www.w3.org/2000/svg" class="transition duration-300 ease-in-out delay-150"><defs><linearGradient id="gradient" x1="0%" y1="50%" x2="100%" y2="50%"><stop offset="5%" stop-color="#0693e3"></stop><stop offset="95%" stop-color="#9900ef"></stop></linearGradient></defs><path d="M 0,400 L 0,100 C 68.28111192930783,82.06056701030928 136.56222385861565,64.12113402061856 189,69 C 241.43777614138435,73.87886597938144 278.0322164948453,101.57603092783505 338,108 C 397.9677835051547,114.42396907216495 481.30891016200303,99.57474226804122 540,83 C 598.691089837997,66.42525773195878 632.7321428571428,48.125 695,59 C 757.2678571428572,69.875 847.7625184094256,109.9252577319588 911,120 C 974.2374815905744,130.0747422680412 1010.2177835051546,110.17396907216494 1068,99 C 1125.7822164948454,87.82603092783506 1205.3663475699561,85.37886597938144 1271,87 C 1336.6336524300439,88.62113402061856 1388.316826215022,94.31056701030928 1440,100 L 1440,400 L 0,400 Z" stroke="none" stroke-width="0" fill="url(#gradient)" fill-opacity="0.53" class="transition-all duration-300 ease-in-out delay-150 path-0" transform="rotate(-180 720 200)"></path><defs><linearGradient id="gradient" x1="0%" y1="50%" x2="100%" y2="50%"><stop offset="5%" stop-color="#0693e3"></stop><stop offset="95%" stop-color="#9900ef"></stop></linearGradient></defs><path d="M 0,400 L 0,233 C 50.492083946980856,253.84996318114875 100.98416789396171,274.6999263622975 167,279 C 233.0158321060383,283.3000736377025 314.55541237113397,271.0502577319587 373,253 C 431.44458762886603,234.94974226804126 466.7941826215023,211.09904270986746 515,218 C 563.2058173784977,224.90095729013254 624.2678571428571,262.55357142857144 687,278 C 749.7321428571429,293.44642857142856 814.1343888070694,286.6866715758468 885,265 C 955.8656111929306,243.3133284241532 1033.1945876288657,206.69974226804123 1103,207 C 1172.8054123711343,207.30025773195877 1235.087260677467,244.51435935198822 1290,255 C 1344.912739322533,265.4856406480118 1392.4563696612665,249.2428203240059 1440,233 L 1440,400 L 0,400 Z" stroke="none" stroke-width="0" fill="url(#gradient)" fill-opacity="1" class="transition-all duration-300 ease-in-out delay-150 path-1" transform="rotate(-180 720 200)"></path><metadata>github.com/bnjmzzn</metadata></svg>
